<svg xmlns="http://www.w3.org/2000/svg" xmlns:xlink="http://www.w3.org/1999/xlink" viewBox="0 0 500 500"><defs><clipPath id="freepik--clip-path--inject-11"><polyline points="417.62 254.85 417.62 241.3 430.54 241.3" style="fill:#407BFF"></polyline></clipPath><clipPath id="freepik--clip-path-2--inject-11"><polygon points="357.17 242.76 355.22 234.92 331.9 234.92 329.95 242.76 295.94 242.76 295.94 304.17 364.87 304.17 364.87 242.76 357.17 242.76" style="fill:#fff"></polygon></clipPath><clipPath id="freepik--clip-path-3--inject-11"><path d="M418.61,254.85h-2v-5h2Zm0-10h-2V240.3h2.45v2h-.45Zm10.45-2.55h-5v-2h5Z" style="fill:#407BFF;clip-path:url(#freepik--clip-path--inject-11)"></path></clipPath><clipPath id="freepik--clip-path-4--inject-11"><path d="M365.87,305.17H361v-2h2.83V303h2Zm-9.83,0h-5v-2h5Zm-10,0h-5v-2h5Zm-10,0h-5v-2h5Zm-10,0h-5v-2h5Zm-10,0h-5v-2h5Zm-10,0h-5v-2h5Zm-10,0h-1.1v-5.89h2v4.89H296ZM365.87,298h-2v-5h2Zm-68.93-3.72h-2v-5h2ZM365.87,288h-2v-5h2Zm-68.93-3.72h-2v-5h2ZM365.87,278h-2v-5h2Zm-68.93-3.72h-2v-5h2ZM365.87,268h-2v-5h2Zm-68.93-3.72h-2v-5h2ZM365.87,258h-2v-5h2Zm-68.93-3.72h-2v-5h2ZM365.87,248h-2v-5h2Zm-68.93-3.72h-2v-2.52h4.48v2h-2.48Zm63.18-.52h-3.73l-1.4-5.61,1.94-.48,1,4.09h2.17Zm-30.7,0h-5v-2h5Zm-10,0h-5v-2h5Zm-10,0h-5v-2h5ZM332,238.67l-1.94-.48,1.06-4.27h2.17v2h-.61Zm21.29-2.75h-5v-2h5Zm-10,0h-5v-2h5Z" style="fill:#407BFF;clip-path:url(#freepik--clip-path-2--inject-11)"></path></clipPath></defs><g id="freepik--Shadow--inject-11"><ellipse id="freepik--path--inject-11" cx="250" cy="416.24" rx="193.89" ry="11.32" style="fill:#f5f5f5"></ellipse></g><g id="freepik--Files--inject-11"><rect x="309.05" y="85.5" width="82.25" height="62.13" style="fill:#fff"></rect><polygon points="392.3 148.63 388.8 148.63 388.8 146.63 390.3 146.63 390.3 145.13 392.3 145.13 392.3 148.63" style="fill:#407BFF"></polygon><path d="M383.65,148.63H378.5v-2h5.15Zm-10.3,0H368.2v-2h5.15Zm-10.3,0H357.9v-2h5.15Zm-10.3,0H347.6v-2h5.15Zm-10.3,0H337.3v-2h5.15Zm-10.3,0H327v-2h5.15Zm-10.3,0H316.7v-2h5.15Z" style="fill:#407BFF"></path><polygon points="311.55 148.63 308.05 148.63 308.05 145.13 310.05 145.13 310.05 146.63 311.55 146.63 311.55 148.63" style="fill:#407BFF"></polygon><path d="M310.05,139.93h-2v-5.19h2Zm0-10.38h-2v-5.2h2Zm0-10.39h-2V114h2Zm0-10.39h-2v-5.19h2Zm0-10.38h-2v-5.2h2Z" style="fill:#407BFF"></path><polygon points="310.05 88 308.05 88 308.05 84.5 311.55 84.5 311.55 86.5 310.05 86.5 310.05 88" style="fill:#407BFF"></polygon><path d="M383.65,86.5H378.5v-2h5.15Zm-10.3,0H368.2v-2h5.15Zm-10.3,0H357.9v-2h5.15Zm-10.3,0H347.6v-2h5.15Zm-10.3,0H337.3v-2h5.15Zm-10.3,0H327v-2h5.15Zm-10.3,0H316.7v-2h5.15Z" style="fill:#407BFF"></path><polygon points="392.3 88 390.3 88 390.3 86.5 388.8 86.5 388.8 84.5 392.3 84.5 392.3 88" style="fill:#407BFF"></polygon><path d="M392.3,139.93h-2v-5.19h2Zm0-10.38h-2v-5.2h2Zm0-10.39h-2V114h2Zm0-10.39h-2v-5.19h2Zm0-10.38h-2v-5.2h2Z" style="fill:#407BFF"></path><rect x="324.11" y="80.44" width="52.13" height="72.25" transform="translate(466.73 -233.61) rotate(90)" style="fill:#407BFF;opacity:0.2"></rect><g style="opacity:0.4"><path d="M342.22,123.91l1.93-2.69a10.11,10.11,0,0,1-1.11-4.66c0-4.82,3.19-8.72,7.13-8.72a6,6,0,0,1,3,.82l1.33-1.84a10.13,10.13,0,0,0-4.34-1.06c-7.82,0-14.15,10.8-14.15,10.8A32.65,32.65,0,0,0,342.22,123.91Z" style="fill:#407BFF"></path><path d="M357.11,108.41l6.25-8.68a.89.89,0,0,0-.2-1.23.9.9,0,0,0-.84-.1.86.86,0,0,1-.13.74l-25,34.7a.83.83,0,0,1-.38.29.87.87,0,0,0,1.55.29l6.28-8.73a10.74,10.74,0,0,0,5.49,1.68c7.82,0,14.16-10.81,14.16-10.81A31.37,31.37,0,0,0,357.11,108.41Zm-6.94,16.88a6.29,6.29,0,0,1-4.07-1.57l1-1.43a4.91,4.91,0,0,0,3,1.1c3.08,0,5.58-3.06,5.58-6.83a7.72,7.72,0,0,0-1.33-4.41l1-1.43a9.8,9.8,0,0,1,1.85,5.84C357.3,121.38,354.11,125.29,350.17,125.29Z" style="fill:#407BFF"></path><path d="M350.17,109.73c-3.08,0-5.58,3.06-5.58,6.83a8.14,8.14,0,0,0,.64,3.16l6.88-9.56A4.62,4.62,0,0,0,350.17,109.73Z" style="fill:#407BFF"></path></g><polygon points="430.54 153.5 430.54 241.3 417.62 254.85 355.11 254.85 355.11 153.5 430.54 153.5" style="fill:#fff"></polygon><polygon points="431.54 156 429.54 156 429.54 154.5 428.04 154.5 428.04 152.5 431.54 152.5 431.54 156" style="fill:#407BFF"></polygon><path d="M423.4,250.23,422,248.85l3.34-3.5,1.45,1.38Zm6.67-7-1.44-1.39.91-.95v-2.71h2v3.51Zm1.47-9.89h-2v-4.83h2Zm0-9.67h-2v-4.83h2Zm0-9.67h-2v-4.83h2Zm0-9.67h-2v-4.83h2Zm0-9.66h-2v-4.84h2Zm0-9.67h-2v-4.84h2Zm0-9.67h-2V170.5h2Zm0-9.67h-2v-4.84h2Z" style="fill:#407BFF"></path><polygon points="418.04 255.85 415.11 255.85 415.11 253.85 417.19 253.85 418.62 252.35 420.06 253.73 418.04 255.85" style="fill:#407BFF"></polygon><path d="M409.89,255.85h-5.23v-2h5.23Zm-10.46,0H394.2v-2h5.23Zm-10.46,0h-5.22v-2H389Zm-10.45,0h-5.23v-2h5.23Zm-10.46,0h-5.23v-2h5.23Z" style="fill:#407BFF"></path><polygon points="357.6 255.85 354.1 255.85 354.1 252.35 356.1 252.35 356.1 253.85 357.6 253.85 357.6 255.85" style="fill:#407BFF"></polygon><path d="M356.1,247.28h-2v-5.07h2Zm0-10.14h-2v-5.07h2Zm0-10.14h-2v-5.08h2Zm0-10.15h-2v-5.07h2Zm0-10.14h-2v-5.07h2Zm0-10.14h-2V191.5h2Zm0-10.14h-2v-5.07h2Zm0-10.15h-2v-5.07h2Zm0-10.14h-2v-5.07h2Z" style="fill:#407BFF"></path><polygon points="356.1 156 354.1 156 354.1 152.5 357.6 152.5 357.6 154.5 356.1 154.5 356.1 156" style="fill:#407BFF"></polygon><path d="M423.34,154.5h-4.7v-2h4.7Zm-9.39,0h-4.7v-2H414Zm-9.39,0h-4.7v-2h4.7Zm-9.39,0h-4.7v-2h4.7Zm-9.39,0h-4.7v-2h4.7Zm-9.39,0h-4.7v-2h4.7Zm-9.39,0h-4.7v-2H367Z" style="fill:#407BFF"></path><polyline points="417.62 254.85 417.62 241.3 430.54 241.3" style="fill:#407BFF"></polyline><path d="M418.61,254.85h-2v-5h2Zm0-10h-2V240.3h2.45v2h-.45Zm10.45-2.55h-5v-2h5Z" style="fill:#407BFF"></path><g style="clip-path:url(#freepik--clip-path-3--inject-11)"><polyline points="417.62 254.85 417.62 241.3 430.54 241.3" style="fill:#fff;opacity:0.7000000000000001"></polyline></g><g style="opacity:0.4"><path d="M383.13,213.12l2.36-3.27a12.36,12.36,0,0,1-1.35-5.67c0-5.88,3.88-10.63,8.68-10.63a7.32,7.32,0,0,1,3.67,1l1.62-2.24a12.25,12.25,0,0,0-5.29-1.3c-9.53,0-17.25,13.17-17.25,13.17A39.61,39.61,0,0,0,383.13,213.12Z" style="fill:#407BFF"></path><path d="M401.28,194.24l7.61-10.58a1.06,1.06,0,0,0-1.26-1.61,1.08,1.08,0,0,1-.16.9l-30.41,42.27a1,1,0,0,1-.47.36,1.06,1.06,0,0,0,.4.6,1.11,1.11,0,0,0,.62.2,1.07,1.07,0,0,0,.87-.45l7.65-10.63a13.2,13.2,0,0,0,6.69,2c9.52,0,17.25-13.16,17.25-13.16A38.35,38.35,0,0,0,401.28,194.24Zm-8.46,20.56a7.58,7.58,0,0,1-5-1.91l1.26-1.74a5.88,5.88,0,0,0,3.7,1.35c3.75,0,6.8-3.73,6.8-8.32A9.41,9.41,0,0,0,398,198.8l1.26-1.74a12,12,0,0,1,2.24,7.12C401.5,210.05,397.62,214.8,392.82,214.8Z" style="fill:#407BFF"></path><path d="M392.82,195.85c-3.75,0-6.8,3.73-6.8,8.33a9.79,9.79,0,0,0,.78,3.84l8.38-11.64A5.61,5.61,0,0,0,392.82,195.85Z" style="fill:#407BFF"></path></g><polygon points="357.17 242.76 355.22 234.92 331.9 234.92 329.95 242.76 295.94 242.76 295.94 304.17 364.87 304.17 364.87 242.76 357.17 242.76" style="fill:#fff"></polygon><path d="M365.87,305.17H361v-2h2.83V303h2Zm-9.83,0h-5v-2h5Zm-10,0h-5v-2h5Zm-10,0h-5v-2h5Zm-10,0h-5v-2h5Zm-10,0h-5v-2h5Zm-10,0h-5v-2h5Zm-10,0h-1.1v-5.89h2v4.89H296ZM365.87,298h-2v-5h2Zm-68.93-3.72h-2v-5h2ZM365.87,288h-2v-5h2Zm-68.93-3.72h-2v-5h2ZM365.87,278h-2v-5h2Zm-68.93-3.72h-2v-5h2ZM365.87,268h-2v-5h2Zm-68.93-3.72h-2v-5h2ZM365.87,258h-2v-5h2Zm-68.93-3.72h-2v-5h2ZM365.87,248h-2v-5h2Zm-68.93-3.72h-2v-2.52h4.48v2h-2.48Zm63.18-.52h-3.73l-1.4-5.61,1.94-.48,1,4.09h2.17Zm-30.7,0h-5v-2h5Zm-10,0h-5v-2h5Zm-10,0h-5v-2h5ZM332,238.67l-1.94-.48,1.06-4.27h2.17v2h-.61Zm21.29-2.75h-5v-2h5Zm-10,0h-5v-2h5Z" style="fill:#407BFF"></path><g style="clip-path:url(#freepik--clip-path-4--inject-11)"><polygon points="357.17 242.76 355.22 234.92 331.9 234.92 329.95 242.76 295.94 242.76 295.94 304.17 364.87 304.17 364.87 242.76 357.17 242.76" style="fill:#407BFF;opacity:0.2"></polygon></g><polygon points="362.09 304.17 293.53 304.17 286.53 253.64 355.09 253.64 362.09 304.17" style="fill:#fff"></polygon><polygon points="363.23 305.17 359.59 305.17 359.59 303.17 360.94 303.17 360.75 301.83 362.73 301.56 363.23 305.17" style="fill:#407BFF"></polygon><path d="M354.7,305.17h-4.89v-2h4.89Zm-9.78,0H340v-2h4.89Zm-9.78,0h-4.89v-2h4.89Zm-9.78,0h-4.88v-2h4.88Zm-9.77,0H310.7v-2h4.89Zm-9.78,0h-4.89v-2h4.89Z" style="fill:#407BFF"></path><polygon points="296.03 305.17 292.66 305.17 292.2 301.83 294.18 301.56 294.4 303.17 296.03 303.17 296.03 305.17" style="fill:#407BFF"></polygon><path d="M291.5,296.77l-.71-5.06,2-.28.7,5.06Zm-1.41-10.13-.7-5.06,2-.28.7,5.07Zm-1.4-10.13-.7-5.06,2-.28.7,5.07Zm-1.4-10.13-.71-5.06,2-.27.7,5.06Z" style="fill:#407BFF"></path><polygon points="285.88 256.26 285.38 252.64 289.03 252.64 289.03 254.64 287.68 254.64 287.87 255.98 285.88 256.26" style="fill:#407BFF"></polygon><path d="M347.7,254.64h-4.89v-2h4.89Zm-9.78,0H333v-2h4.89Zm-9.78,0h-4.89v-2h4.89Zm-9.78,0h-4.88v-2h4.88Zm-9.77,0H303.7v-2h4.89Zm-9.78,0h-4.89v-2h4.89Z" style="fill:#407BFF"></path><polygon points="354.44 256.26 354.21 254.64 352.59 254.64 352.59 252.64 355.96 252.64 356.42 255.98 354.44 256.26" style="fill:#407BFF"></polygon><path d="M360.05,296.77l-.7-5.07,2-.27.7,5.06Zm-1.4-10.13-.7-5.06,2-.28.7,5.07Zm-1.41-10.13-.7-5.06,2-.28.71,5.07Zm-1.4-10.13-.7-5.06,2-.28.7,5.07Z" style="fill:#407BFF"></path><g style="opacity:0.4"><path d="M314.48,286.2l1.94-2.68a10.11,10.11,0,0,1-1.11-4.66c0-4.82,3.19-8.72,7.12-8.72a6.11,6.11,0,0,1,3,.82l1.32-1.84a10.1,10.1,0,0,0-4.34-1.06c-7.81,0-14.15,10.8-14.15,10.8A32.48,32.48,0,0,0,314.48,286.2Z" style="fill:#407BFF"></path><path d="M329.38,270.71l6.24-8.69a.87.87,0,0,0-1-1.32.89.89,0,0,1-.13.74l-25,34.7a.85.85,0,0,1-.39.29.87.87,0,0,0,.33.49.9.9,0,0,0,.51.16.86.86,0,0,0,.71-.36L317,288a10.79,10.79,0,0,0,5.48,1.67c7.82,0,14.16-10.8,14.16-10.8A31.45,31.45,0,0,0,329.38,270.71Zm-6.95,16.87a6.28,6.28,0,0,1-4.07-1.56l1-1.44a4.86,4.86,0,0,0,3,1.11c3.08,0,5.58-3.06,5.58-6.83a7.79,7.79,0,0,0-1.32-4.41l1-1.43a9.86,9.86,0,0,1,1.84,5.84C329.56,283.68,326.37,287.58,322.43,287.58Z" style="fill:#407BFF"></path><path d="M322.43,272c-3.08,0-5.58,3.06-5.58,6.83a8.14,8.14,0,0,0,.64,3.16l6.88-9.56A4.58,4.58,0,0,0,322.43,272Z" style="fill:#407BFF"></path></g></g><g id="freepik--Folder--inject-11"><path d="M249,125.82l4.26-5.22a8.11,8.11,0,0,1,6.16-3.06H286a5.77,5.77,0,0,1,5.25,3.06l2.69,5.22a5.74,5.74,0,0,0,5.24,3.05H315.1a5.76,5.76,0,0,1,5.82,6.86L307.69,224a8.24,8.24,0,0,1-7.88,6.86H174a5.76,5.76,0,0,1-5.83-6.86l13.23-88.24a8.26,8.26,0,0,1,7.88-6.86h53.59A8.12,8.12,0,0,0,249,125.82Z" style="fill:#407BFF"></path><path d="M249,125.82l4.26-5.22a8.11,8.11,0,0,1,6.16-3.06H286a5.77,5.77,0,0,1,5.25,3.06l2.69,5.22a5.74,5.74,0,0,0,5.24,3.05H315.1a5.76,5.76,0,0,1,5.82,6.86L307.69,224a8.24,8.24,0,0,1-7.88,6.86H174a5.76,5.76,0,0,1-5.83-6.86l13.23-88.24a8.26,8.26,0,0,1,7.88-6.86h53.59A8.12,8.12,0,0,0,249,125.82Z" style="fill:#fff;opacity:0.5"></path><path d="M175.93,137.28H291.2a8.62,8.62,0,0,1,8.69,8.57l-.07,76.41a8.64,8.64,0,0,1-8.71,8.57H175.84a8.63,8.63,0,0,1-8.7-8.57l.08-76.41A8.64,8.64,0,0,1,175.93,137.28Z" style="fill:#407BFF"></path><path d="M175.93,137.28H291.2a8.62,8.62,0,0,1,8.69,8.57l-.07,76.41a8.64,8.64,0,0,1-8.71,8.57H175.84a8.63,8.63,0,0,1-8.7-8.57l.08-76.41A8.64,8.64,0,0,1,175.93,137.28Z" style="fill:#fff;opacity:0.7000000000000001"></path><rect x="178.75" y="157.36" width="37.88" height="60.74" rx="2.38" style="fill:#407BFF"></rect><rect x="175.75" y="157.36" width="37.88" height="60.74" rx="2.38" style="fill:#407BFF"></rect><rect x="175.75" y="157.36" width="37.88" height="60.74" rx="2.38" style="fill:#fff;opacity:0.2"></rect><rect x="179.75" y="175.11" width="8.02" height="8.26" rx="0.99" style="fill:#407BFF"></rect><rect x="190.38" y="175.11" width="8.02" height="8.26" rx="0.99" style="fill:#407BFF"></rect><rect x="201.01" y="175.11" width="8.02" height="8.26" rx="0.99" style="fill:#407BFF"></rect><rect x="179.75" y="185.15" width="8.02" height="8.26" rx="0.99" style="fill:#407BFF"></rect><rect x="190.38" y="185.15" width="8.02" height="8.26" rx="0.99" style="fill:#407BFF"></rect><rect x="201.01" y="185.15" width="8.02" height="8.26" rx="0.99" style="fill:#407BFF"></rect><rect x="179.75" y="195.18" width="8.02" height="8.26" rx="0.99" style="fill:#407BFF"></rect><rect x="190.38" y="195.18" width="8.02" height="8.26" rx="0.99" style="fill:#407BFF"></rect><rect x="201.01" y="195.18" width="8.02" height="8.26" rx="0.99" style="fill:#407BFF"></rect><rect x="190.38" y="205.21" width="8.02" height="8.26" rx="0.99" style="fill:#407BFF"></rect><rect x="178.75" y="175.11" width="8.02" height="8.26" rx="0.99" style="fill:#407BFF"></rect><rect x="189.38" y="175.11" width="8.02" height="8.26" rx="0.99" style="fill:#407BFF"></rect><rect x="200.01" y="175.11" width="8.02" height="8.26" rx="0.99" style="fill:#407BFF"></rect><rect x="178.75" y="185.15" width="8.02" height="8.26" rx="0.99" style="fill:#407BFF"></rect><rect x="189.38" y="185.15" width="8.02" height="8.26" rx="0.99" style="fill:#407BFF"></rect><rect x="200.01" y="185.15" width="8.02" height="8.26" rx="0.99" style="fill:#407BFF"></rect><rect x="178.75" y="195.18" width="8.02" height="8.26" rx="0.99" style="fill:#407BFF"></rect><rect x="189.38" y="195.18" width="8.02" height="8.26" rx="0.99" style="fill:#407BFF"></rect><rect x="200.01" y="195.18" width="8.02" height="8.26" rx="0.99" style="fill:#407BFF"></rect><rect x="189.38" y="205.21" width="8.02" height="8.26" rx="0.99" style="fill:#407BFF"></rect><g style="opacity:0.5"><rect x="178.75" y="175.11" width="8.02" height="8.26" rx="0.99" style="fill:#fff"></rect><rect x="189.38" y="175.11" width="8.02" height="8.26" rx="0.99" style="fill:#fff"></rect><rect x="200.01" y="175.11" width="8.02" height="8.26" rx="0.99" style="fill:#fff"></rect><rect x="178.75" y="185.15" width="8.02" height="8.26" rx="0.99" style="fill:#fff"></rect><rect x="189.38" y="185.15" width="8.02" height="8.26" rx="0.99" style="fill:#fff"></rect><rect x="200.01" y="185.15" width="8.02" height="8.26" rx="0.99" style="fill:#fff"></rect><rect x="178.75" y="195.18" width="8.02" height="8.26" rx="0.99" style="fill:#fff"></rect><rect x="189.38" y="195.18" width="8.02" height="8.26" rx="0.99" style="fill:#fff"></rect><rect x="200.01" y="195.18" width="8.02" height="8.26" rx="0.99" style="fill:#fff"></rect><rect x="189.38" y="205.21" width="8.02" height="8.26" rx="0.99" style="fill:#fff"></rect></g><rect x="179.75" y="162.95" width="29.27" height="7.52" style="fill:#407BFF"></rect><g style="opacity:0.2"><path d="M186,166.7l1.48.84-.27.51-1.5-.88v1.7h-.55v-1.7l-1.5.88-.29-.51,1.5-.84-1.5-.84.29-.51,1.5.89v-1.71h.55v1.71l1.5-.89.27.51Z" style="fill:#fff"></path></g><g style="opacity:0.2"><path d="M191.94,166.7l1.49.84-.27.51-1.5-.88v1.7h-.56l0-1.7-1.5.88-.29-.51,1.5-.84-1.5-.84.29-.51,1.5.89,0-1.71h.56v1.71l1.5-.89.27.51Z" style="fill:#fff"></path></g><g style="opacity:0.2"><path d="M197.91,166.7l1.49.84-.28.51-1.5-.88v1.7h-.55v-1.7l-1.5.88-.28-.51,1.5-.84-1.5-.84.28-.51,1.5.89v-1.71h.55v1.71l1.5-.89.28.51Z" style="fill:#fff"></path></g><g style="opacity:0.2"><path d="M203.88,166.7l1.48.84-.27.51-1.5-.88v1.7H203v-1.7l-1.5.88-.29-.51,1.5-.84-1.5-.84.29-.51,1.5.89v-1.71h.55v1.71l1.5-.89.27.51Z" style="fill:#fff"></path></g><g style="opacity:0.4"><path d="M243.34,197l3.31-4.6a17.24,17.24,0,0,1-1.9-8c0-8.25,5.46-14.93,12.2-14.93a10.33,10.33,0,0,1,5.16,1.41l2.27-3.15A17.25,17.25,0,0,0,257,166c-13.38,0-24.23,18.49-24.23,18.49A55.47,55.47,0,0,0,243.34,197Z"></path><path d="M268.83,170.52l10.7-14.87a1.5,1.5,0,0,0-1.78-2.26,1.47,1.47,0,0,1-.22,1.26L234.8,214a1.43,1.43,0,0,1-.66.51,1.55,1.55,0,0,0,.57.84,1.49,1.49,0,0,0,2.09-.35l10.75-14.94A18.49,18.49,0,0,0,257,203c13.38,0,24.23-18.5,24.23-18.5S276.2,176,268.83,170.52ZM257,199.41a10.69,10.69,0,0,1-7-2.69l1.77-2.45a8.3,8.3,0,0,0,5.2,1.89c5.27,0,9.55-5.23,9.55-11.69a13.29,13.29,0,0,0-2.27-7.55l1.76-2.45a16.83,16.83,0,0,1,3.16,10C269.15,192.72,263.69,199.41,257,199.41Z"></path><path d="M257,172.78c-5.28,0-9.55,5.23-9.55,11.69a13.78,13.78,0,0,0,1.09,5.41l11.77-16.37A7.92,7.92,0,0,0,257,172.78Z"></path></g></g></svg>